HIERARCHY
ROOT Hips
{
 OFFSET 0.000000 0.000000 0.000000
 CHANNELS 6 Xposition Yposition Zposition Yrotation Xrotation Zrotation
 JOINT Chest
 {
  OFFSET 0.000000 9.585900 0.002600
  CHANNELS 3 Yrotation Xrotation Zrotation
  JOINT Chest2
  {
   OFFSET 0.000000 9.601200 -0.005300
   CHANNELS 3 Yrotation Xrotation Zrotation
   JOINT Chest3
   {
    OFFSET 0.000000 9.561800 0.000000
    CHANNELS 3 Yrotation Xrotation Zrotation
    JOINT Chest4
    {
     OFFSET 0.000000 9.552100 0.000000
     CHANNELS 3 Yrotation Xrotation Zrotation
     JOINT Neck
     {
      OFFSET 0.000000 14.453000 0.000000
      CHANNELS 3 Yrotation Xrotation Zrotation
      JOINT Head
      {
       OFFSET 0.000000 8.936500 -0.011300
       CHANNELS 3 Yrotation Xrotation Zrotation
       End Site
       {
        OFFSET 0.000000 17.073600 -0.006000
       }
      }
     }
     JOINT RightCollar
     {
      OFFSET -2.921100 9.558500 0.000000
      CHANNELS 3 Yrotation Xrotation Zrotation
      JOINT RightShoulder
      {
       OFFSET -13.519700 0.000000 0.000000
       CHANNELS 3 Yrotation Xrotation Zrotation
       JOINT RightElbow
       {
        OFFSET 0.000000 -29.696600 0.000000
        CHANNELS 3 Yrotation Xrotation Zrotation
        JOINT RightWrist
        {
         OFFSET 0.000000 -24.004700 0.000000
         CHANNELS 3 Yrotation Xrotation Zrotation
         End Site
         {
          OFFSET 0.000000 -17.728500 0.000000
         }
        }
       }
      }
     }
     JOINT LeftCollar
     {
      OFFSET 2.921100 9.558500 0.000000
      CHANNELS 3 Yrotation Xrotation Zrotation
      JOINT LeftShoulder
      {
       OFFSET 13.519700 0.000000 0.000000
       CHANNELS 3 Yrotation Xrotation Zrotation
       JOINT LeftElbow
       {
        OFFSET 0.000000 -29.696600 0.000000
        CHANNELS 3 Yrotation Xrotation Zrotation
        JOINT LeftWrist
        {
         OFFSET 0.000000 -24.004700 0.000000
         CHANNELS 3 Yrotation Xrotation Zrotation
         End Site
         {
          OFFSET 0.000000 -17.728500 0.000000
         }
        }
       }
      }
     }
    }
   }
  }
 }
 JOINT RightHip
 {
  OFFSET -7.771700 -0.012900 -0.001300
  CHANNELS 3 Yrotation Xrotation Zrotation
  JOINT RightKnee
  {
   OFFSET 0.000000 -40.869800 0.001200
   CHANNELS 3 Yrotation Xrotation Zrotation
   JOINT RightAnkle
   {
    OFFSET 0.000000 -39.717900 0.002100
    CHANNELS 3 Yrotation Xrotation Zrotation
    JOINT RightToe
    {
     OFFSET 0.000000 -4.965400 11.033500
     CHANNELS 3 Yrotation Xrotation Zrotation
     End Site
     {
      OFFSET 0.000000 -1.423100 5.872300
     }
    }
   }
  }
 }
 JOINT LeftHip
 {
  OFFSET 7.771700 -0.012900 -0.001300
  CHANNELS 3 Yrotation Xrotation Zrotation
  JOINT LeftKnee
  {
   OFFSET 0.000000 -40.869800 0.001200
   CHANNELS 3 Yrotation Xrotation Zrotation
   JOINT LeftAnkle
   {
    OFFSET 0.000000 -39.717900 0.002100
    CHANNELS 3 Yrotation Xrotation Zrotation
    JOINT LeftToe
    {
     OFFSET 0.000000 -4.965400 11.033500
     CHANNELS 3 Yrotation Xrotation Zrotation
     End Site
     {
      OFFSET 0.000000 -1.423100 5.872300
     }
    }
   }
  }
 }
}
MOTION
Frames: 13
Frame Time: 0.008333
0.000000 85.388000 0.000000 0.000000 -5.767877 0.000000 0.000000 11.653817 0.000000 0.000000 -5.885947 0.000000 0.000000 -0.000000 0.000000 0.000000 -0.000000 0.000000 0.000000 12.528835 0.000000 0.000000 0.711642 0.000000 0.000000 -0.000000 0.000000 0.000000 0.000000 -90.000000 0.000000 -2.309062 0.000000 0.000000 2.309062 0.000000 0.000000 -0.000000 0.000000 0.000000 -0.000000 90.000000 0.000000 -2.309062 0.000000 0.000000 2.309062 0.000000 0.000000 8.520406 0.000000 0.000000 1.905762 0.000000 -0.000000 -4.658285 0.000000 0.000000 -0.000000 0.000000 0.000000 8.520406 0.000000 0.000000 1.905762 0.000000 -0.000000 -4.658285 0.000000 0.000000 -0.000000 0.000000
11.753856 50.048633 49.922875 172.185044 -32.953917 -6.398627 8.557491 24.603829 8.768126 1.146791 4.262738 0.991364 1.879569 6.771269 1.616771 6.427942 20.359972 5.804446 -2.177868 22.089915 1.603690 -4.481282 5.291277 3.551459 0.641351 -2.884316 -8.505612 7.639807 -20.929405 -11.826320 -131.586187 -45.367088 138.279909 -11.097489 -4.264710 42.728763 -16.261334 -3.557244 7.029315 5.331105 -23.268742 1.716464 114.902854 -41.377209 -136.649505 47.434587 9.153357 -40.457567 1.530715 -48.104258 10.259462 -122.718563 85.087497 -111.201409 -3.240364 -12.096193 -2.889185 -0.317328 0.957804 -0.137284 -8.484926 -51.577740 16.631538 -148.365231 80.059020 -155.774678 1.895618 -16.164773 8.212768 -0.535591 -1.051636 -0.272831
11.752983 50.047181 49.921920 172.171051 -32.938710 -6.380357 8.599681 24.604777 8.771111 1.162631 4.270168 0.991552 1.883579 6.767726 1.617616 6.517827 20.374517 5.806623 -2.273372 22.070124 1.644126 -4.578435 5.294123 3.595483 0.569781 -2.901651 -8.513145 7.772124 -21.090878 -11.819342 -131.363889 -45.467235 137.858482 -11.328907 -4.312689 41.762823 -16.422057 -3.584745 7.111741 5.163610 -23.395710 1.652665 114.884397 -41.567875 -136.250770 47.582672 8.960719 -39.816992 1.563373 -48.126860 10.242346 -122.753757 85.079271 -111.236290 -3.240850 -12.099613 -2.882244 -0.313510 0.973005 -0.137728 -8.468689 -51.591298 16.625579 -148.329267 80.057657 -155.749928 1.902854 -16.168297 8.216961 -0.534758 -1.042032 -0.266038
11.749584 50.046475 49.918700 172.175075 -32.933182 -6.355948 8.624292 24.615449 8.760648 1.148662 4.263702 0.990373 1.916332 6.778196 1.618048 6.573370 20.377589 5.809833 -2.351478 22.042829 1.681943 -4.626511 5.301578 3.612759 0.503766 -2.928376 -8.510340 7.943322 -21.219697 -11.835273 -131.130318 -45.570976 137.427509 -11.570663 -4.343928 40.752809 -16.550792 -3.602589 7.175221 5.005076 -23.521242 1.589835 114.852908 -41.769375 -135.829062 47.678169 8.788696 -39.207982 1.600794 -48.138814 10.202809 -122.876449 85.066935 -111.365986 -3.234880 -12.105420 -2.863638 -0.321882 0.985249 -0.142886 -8.436628 -51.598739 16.584406 -148.289857 80.056012 -155.714482 1.894110 -16.161922 8.220265 -0.530613 -1.037806 -0.255801
11.748257 50.045742 49.916311 172.163785 -32.926887 -6.338025 8.647680 24.614679 8.756299 1.152964 4.265938 0.990893 1.947095 6.783140 1.617190 6.605136 20.373600 5.812242 -2.400387 22.051456 1.700898 -4.746229 5.299039 3.661806 0.470577 -2.946075 -8.520921 8.099440 -21.335650 -11.847845 -130.887101 -45.683246 136.985914 -11.823553 -4.362070 39.718648 -16.655876 -3.609514 7.226166 4.858100 -23.648779 1.531734 114.808571 -41.981353 -135.390481 47.746441 8.621685 -38.578539 1.624120 -48.148539 10.186736 -122.908973 85.062924 -111.400566 -3.232978 -12.108521 -2.860004 -0.325937 1.000929 -0.144460 -8.400917 -51.606164 16.558049 -148.329504 80.056999 -155.746388 1.868460 -16.166175 8.224148 -0.526873 -1.024921 -0.249801
11.745569 50.044538 49.914432 172.151576 -32.917270 -6.314197 8.667975 24.610321 8.744813 1.176771 4.272522 0.991648 1.932589 6.775333 1.617630 6.620778 20.371409 5.813363 -2.406727 22.068517 1.680319 -4.864365 5.287257 3.730098 0.470612 -2.962761 -8.538038 8.261802 -21.433330 -11.871333 -130.634824 -45.799916 136.526618 -12.076436 -4.371320 38.686124 -16.722813 -3.610985 7.256643 4.720155 -23.776887 1.484034 114.751095 -42.196495 -134.942705 47.817767 8.442817 -37.875340 1.638260 -48.163040 10.177106 -122.920423 85.052780 -111.424929 -3.242245 -12.106164 -2.856932 -0.319879 1.006725 -0.141842 -8.343843 -51.617701 16.506813 -148.355521 80.061814 -155.755623 1.858097 -16.178460 8.223060 -0.528007 -1.007862 -0.244639
11.738965 50.043816 49.910737 172.180455 -32.914047 -6.290182 8.665186 24.616320 8.719752 1.221286 4.274031 0.991325 1.879929 6.770973 1.621407 6.636838 20.369508 5.814649 -2.424070 22.061678 1.676815 -4.941658 5.280937 3.761576 0.472048 -2.982590 -8.553520 8.418745 -21.519364 -11.897601 -130.366179 -45.917892 136.038572 -12.314487 -4.373768 37.681275 -16.783830 -3.613541 7.283026 4.570952 -23.903259 1.453906 114.678408 -42.405585 -134.485468 47.909143 8.239843 -37.074256 1.649140 -48.165584 10.129383 -122.978995 85.049029 -111.492906 -3.283535 -12.086463 -2.855983 -0.296813 0.989644 -0.131254 -8.310495 -51.623172 16.434859 -148.359202 80.061236 -155.757306 1.814966 -16.192928 8.220812 -0.482555 -0.984773 -0.226544
11.735702 50.043921 49.907212 172.193878 -32.918956 -6.279630 8.715008 24.612174 8.728564 1.185392 4.275787 0.992455 1.931107 6.768224 1.617988 6.637010 20.369571 5.825756 -2.472205 22.053271 1.698557 -4.999063 5.263258 3.773487 0.443206 -3.000218 -8.551375 8.565469 -21.601729 -11.925044 -130.065146 -46.037684 135.517409 -12.525211 -4.369741 36.713805 -16.886306 -3.619742 7.317586 4.414729 -24.015453 1.447962 114.589721 -42.603228 -134.015498 48.020075 7.995490 -36.184162 1.654189 -48.160428 10.108094 -123.045070 85.038543 -111.565862 -3.277468 -12.090138 -2.851982 -0.285323 0.994111 -0.131462 -8.289143 -51.618893 16.395622 -148.360860 80.061904 -155.757832 1.814134 -16.192529 8.219971 -0.470657 -0.984155 -0.220979
11.732906 50.043340 49.905202 172.200129 -32.917721 -6.270072 8.735606 24.599362 8.725835 1.188913 4.273793 0.992066 1.947226 6.763829 1.616831 6.653758 20.371722 5.834763 -2.512370 22.053225 1.717076 -5.027100 5.255771 3.784778 0.416825 -3.002568 -8.548404 8.700195 -21.690840 -11.945122 -129.722269 -46.167431 134.966424 -12.712234 -4.365018 35.778485 -16.991219 -3.623559 7.343986 4.244533 -24.109606 1.466441 114.487879 -42.783796 -133.531148 48.137731 7.696328 -35.246475 1.660011 -48.162983 10.092722 -123.098426 85.037975 -111.626123 -3.274884 -12.089033 -2.847903 -0.269234 0.999569 -0.132236 -8.254826 -51.622097 16.342346 -148.417190 80.069911 -155.803040 1.852663 -16.201759 8.212841 -0.486671 -0.978473 -0.221159
11.731160 50.042825 49.903585 172.205504 -32.918374 -6.266251 8.751488 24.588798 8.726324 1.209306 4.263836 0.989230 1.944002 6.763419 1.617261 6.670367 20.366471 5.838330 -2.532218 22.033207 1.712196 -5.089191 5.239872 3.817316 0.392137 -2.990235 -8.538631 8.826291 -21.792895 -11.955863 -129.342698 -46.320431 134.388151 -12.893191 -4.364506 34.882743 -17.069870 -3.611386 7.368762 4.032292 -24.201919 1.502589 114.365617 -42.951169 -133.020919 48.243901 7.348104 -34.337249 1.667874 -48.169995 10.081269 -123.185556 85.033973 -111.719246 -3.249091 -12.067672 -2.854231 -0.303615 0.985856 -0.122135 -8.241710 -51.624091 16.319224 -148.439442 80.070632 -155.819226 1.853001 -16.194722 8.211867 -0.476030 -0.981426 -0.219873
11.729208 50.042614 49.901403 172.209427 -32.925963 -6.258267 8.752661 24.593755 8.719071 1.237815 4.247237 0.982506 1.949437 6.759486 1.615596 6.686623 20.363132 5.843945 -2.562354 22.038550 1.733548 -5.143866 5.179613 3.821935 0.362850 -2.976312 -8.521435 8.945949 -21.905541 -11.962531 -128.926061 -46.496030 133.777747 -13.072920 -4.372414 34.047937 -17.129316 -3.588741 7.395003 3.782090 -24.300862 1.548209 114.202696 -43.110281 -132.463708 48.323973 6.986579 -33.539404 1.687487 -48.169571 10.063133 -123.229189 85.026919 -111.755610 -3.276777 -12.053110 -2.842199 -0.286108 0.971891 -0.127362 -8.220703 -51.619688 16.288552 -148.475072 80.071391 -155.846138 1.843073 -16.185539 8.210222 -0.479893 -0.986682 -0.218179
11.728688 50.042199 49.899909 172.215562 -32.933754 -6.257606 8.781985 24.580206 8.725063 1.221811 4.253356 0.983587 1.962119 6.750337 1.609937 6.760638 20.317820 5.808156 -2.613794 22.056318 1.793867 -5.197509 5.146032 3.848881 0.278202 -2.930529 -8.442451 9.062207 -22.021167 -11.973229 -128.474086 -46.679075 133.130863 -13.244061 -4.395614 33.282168 -17.272232 -3.531691 7.462384 3.550655 -24.378096 1.598226 113.987814 -43.258898 -131.849585 48.368600 6.672315 -32.899018 1.704467 -48.170252 10.048325 -123.273997 85.019470 -111.790117 -3.283665 -12.031789 -2.839133 -0.283423 0.961579 -0.126806 -8.208750 -51.613482 16.269264 -148.535802 80.075133 -155.898608 1.830235 -16.180313 8.208909 -0.479803 -0.987142 -0.217080
11.728965 50.041419 49.899009 172.214359 -32.942688 -6.254107 8.824959 24.548549 8.725101 1.197102 4.275193 0.993831 1.955090 6.755067 1.613279 6.792646 20.285464 5.783467 -2.632385 22.046494 1.801344 -5.249298 5.115625 3.881314 0.252110 -2.907703 -8.402542 9.180578 -22.129636 -11.993068 -128.009089 -46.860085 132.455542 -13.410115 -4.431485 32.587091 -17.356674 -3.512409 7.497538 3.321571 -24.443121 1.631521 113.730184 -43.401906 -131.183594 48.374734 6.454971 -32.413014 1.730404 -48.172398 10.035237 -123.329198 85.017801 -111.828948 -3.320466 -12.009557 -2.829969 -0.307894 0.962755 -0.129939 -8.192290 -51.606138 16.255935 -148.570979 80.075163 -155.929933 1.820884 -16.175677 8.213521 -0.486934 -0.987657 -0.218300
